<?xml version="1.0" encoding="UTF-8" standalone="no"?>
<svg width="1489px" height="130px" viewBox="0 0 1489 130" version="1.1" xmlns="http://www.w3.org/2000/svg" xmlns:xlink="http://www.w3.org/1999/xlink" xmlns:sketch="http://www.bohemiancoding.com/sketch/ns">
    <!-- Generator: Sketch 3.0.4 (8053) - http://www.bohemiancoding.com/sketch -->
    <title>playerme-logo-label</title>
    <desc>Created with Sketch.</desc>
    <defs></defs>
    <g id="Border-only" stroke="none" stroke-width="1" fill="none" fill-rule="evenodd" sketch:type="MSPage">
        <g id="playerme-logo-label" sketch:type="MSLayerGroup" transform="translate(-132.000000, -214.000000)">
            <rect id="Rectangle-9" sketch:type="MSShapeGroup" x="-1.73864308" y="0" width="1645" height="547"></rect>
            <g id=".me" transform="translate(1178.093614, 214.205200)" fill="#FFFFFF" sketch:type="MSShapeGroup">
                <path d="M32.729169,129.5296 L0,129.5296 L0,106.572321 L32.729169,106.572321 L32.729169,129.5296 Z" id="Path"></path>
                <path d="M258.243701,129.5296 L232.90499,129.5296 L232.271522,22.9572787 L167.02434,111.2059 L101.988314,22.1148098 L101.354846,22.9572787 L101.354846,129.5296 L76.0161344,129.5296 L76.0161344,0 L114.024202,0 L167.02434,73.294798 L220.235634,0 L258.243701,0 L258.243701,129.5296 Z" id="Path"></path>
                <path d="M442.371671,129.5296 L302.586446,129.5296 L302.586446,0 L437.515085,0 L437.515085,22.9572787 L327.925158,22.9572787 L327.925158,50.7587538 L404.152448,50.7587538 L404.152448,73.7160325 L327.925158,73.7160325 L327.925158,106.572321 L442.371671,106.572321 L442.371671,129.5296 Z" id="Path"></path>
            </g>
            <g id="player" transform="translate(132.763295, 214.205200)" fill="#C6C6C6" sketch:type="MSShapeGroup">
                <path d="M105.332873,0 C119.179518,0 130.200151,3.72086729 138.395103,11.1627135 C146.590056,18.6045597 150.687471,28.5736758 150.687471,41.070361 C150.687471,54.1286949 146.413443,64.2031186 137.86526,71.2939343 C129.317076,78.38475 117.060154,81.9301047 101.094126,81.9301047 L25.4324845,81.9301047 L25.4324845,129.5296 L0,129.5296 L0,0 L105.332873,0 Z M101.518001,58.972826 C116.91886,58.972826 124.619174,53.1458074 124.619174,41.4915954 C124.619174,29.1353225 116.424344,22.9572787 100.034439,22.9572787 L25.4324845,22.9572787 L25.4324845,58.972826 L101.518001,58.972826 Z" id="Path"></path>
                <path d="M303.282378,129.5296 L177.179642,129.5296 L177.179642,0 L202.612127,0 L202.612127,106.572321 L303.282378,106.572321 L303.282378,129.5296 Z" id="Path"></path>
                <path d="M484.912705,129.5296 L456.936972,129.5296 L441.889418,101.728125 L354.359284,101.728125 L339.311731,129.5296 L311.335998,129.5296 L382.335017,0 L413.913686,0 L484.912705,129.5296 Z M429.173176,78.7708462 L398.23032,21.482958 L367.075527,78.7708462 L429.173176,78.7708462 Z" id="Path"></path>
                <path d="M662.092347,0 L587.914267,78.5602289 L587.914267,129.5296 L562.481783,129.5296 L562.481783,78.5602289 L488.727577,0 L519.670434,0 L575.409962,58.972826 L631.149491,0 L662.092347,0 Z" id="Path"></path>
                <path d="M825.707997,129.5296 L685.405458,129.5296 L685.405458,0 L820.833438,0 L820.833438,22.9572787 L710.837942,22.9572787 L710.837942,50.7587538 L787.347333,50.7587538 L787.347333,73.7160325 L710.837942,73.7160325 L710.837942,106.572321 L825.707997,106.572321 L825.707997,129.5296 Z" id="Path"></path>
                <path d="M1012.00095,129.5296 L982.753589,129.5296 L948.631672,81.9301047 L883.990774,81.9301047 L883.990774,129.5296 L858.55829,129.5296 L858.55829,0 L963.891163,0 C977.737807,0 988.75844,3.72086729 996.953393,11.1627135 C1005.14835,18.6045597 1009.24576,28.5736758 1009.24576,41.070361 C1009.24576,62.5534264 998.437063,75.6817695 976.819343,80.4557841 L1012.00095,129.5296 Z M960.076291,58.972826 C975.47715,58.972826 983.177464,53.1458074 983.177464,41.4915954 C983.177464,29.1353225 974.982634,22.9572787 958.592729,22.9572787 L883.990774,22.9572787 L883.990774,58.972826 L960.076291,58.972826 Z" id="Path"></path>
            </g>
        </g>
    </g>
</svg>